<svg width="145" height="32" viewBox="0 0 145 32" fill="none" xmlns="http://www.w3.org/2000/svg">
<path d="M24.5659 24.3794C25.0501 22.5027 25.2715 20.5683 25.2239 18.6312V4.01314C25.2239 2.94744 24.9967 2.16467 24.5517 1.6884C24.3296 1.45426 24.0594 1.27068 23.7596 1.15022C23.4597 1.02977 23.1372 0.975285 22.8142 0.990509C22.4975 0.973229 22.1809 1.026 21.887 1.14503C21.5932 1.26406 21.3294 1.4464 21.1147 1.67897C20.6839 2.15052 20.4661 2.94272 20.4661 4.03672V19.1027C20.4661 21.8472 19.9122 23.9503 18.8187 25.3508C17.7251 26.7513 15.7746 27.5388 13.1377 27.5388C11.2441 27.5388 9.75757 27.1851 8.67346 26.4825C7.57303 25.7731 6.75461 24.7045 6.35848 23.4599C5.91902 22.008 5.7129 20.4961 5.74778 18.9801V4.02257C5.74778 2.9663 5.52528 2.18353 5.08974 1.69783C4.86733 1.46027 4.59501 1.27454 4.29223 1.1539C3.98944 1.03327 3.66365 0.980694 3.33812 0.99994C3.02213 0.984591 2.70666 1.03922 2.41442 1.1599C2.12218 1.28058 1.86044 1.4643 1.64804 1.69783C1.20777 2.16938 0.989997 2.9663 0.989997 4.02257V18.6406C0.953046 20.5687 1.1954 22.4919 1.70958 24.3511C2.10501 25.7701 2.85223 27.0673 3.88254 28.1235C4.9644 29.1506 6.28523 29.8943 7.72664 30.2879C9.63224 30.8072 11.6027 31.0517 13.578 31.0141C15.2502 31.0445 16.9171 30.8186 18.5204 30.3445C19.8604 29.9218 21.0905 29.2101 22.1231 28.2602C23.2775 27.2128 24.1223 25.8707 24.5659 24.3794ZM58.5852 3.81509C58.6497 3.04164 58.4385 2.27029 57.9887 1.63653C57.7923 1.42001 57.5494 1.25035 57.2781 1.14014C57.0068 1.02993 56.7141 0.982012 56.4217 0.99994C56.1385 0.985944 55.8559 1.03545 55.5945 1.14482C55.3331 1.25418 55.0997 1.42061 54.9115 1.63182C54.4666 2.26929 54.259 3.04145 54.3245 3.81509V24.2379L41.1353 4.35737L40.1884 2.84842C39.9499 2.46544 39.674 2.10689 39.3647 1.778C39.1143 1.51537 38.8101 1.30953 38.4727 1.17446C38.1353 1.03939 37.7727 0.978259 37.4095 0.995224C36.844 0.991174 36.2901 1.15537 35.8189 1.46677C35.3554 1.75094 34.9916 2.17096 34.7773 2.66923C34.5662 3.33661 34.4733 4.0355 34.5028 4.73461V28.2036C34.4428 28.9721 34.6611 29.7366 35.1182 30.3586C35.3126 30.5792 35.5545 30.7531 35.8258 30.8674C36.0972 30.9817 36.3909 31.0335 36.6852 31.0188C36.9768 31.0293 37.2672 30.9756 37.5356 30.8615C37.804 30.7474 38.0438 30.5757 38.238 30.3586C38.7043 29.7408 38.9267 28.974 38.8629 28.2036V8.00717L51.7349 27.6944C52.0569 28.1659 52.3882 28.6375 52.7149 29.109C52.9986 29.5097 53.3256 29.8782 53.6901 30.2077C53.9863 30.477 54.3319 30.6867 54.708 30.8255C55.1132 30.963 55.5392 31.03 55.9672 31.0235C57.1886 31.0235 58.5852 30.651 58.5852 27.7227V3.81509Z" fill="#98BF38"/>
<path d="M89.0856 13.1142C88.1135 12.6207 87.0328 12.3775 85.9421 12.4069C84.9566 12.3941 83.9825 12.6173 83.1016 13.0576C82.1536 13.5695 81.3206 14.2691 80.6541 15.1136L80.0197 15.9435L79.5085 15.0617C79.0577 14.2423 78.3895 13.5621 77.5769 13.0953C76.7003 12.6439 75.7229 12.4216 74.7365 12.4493C73.7211 12.4357 72.7164 12.6568 71.8013 13.0953C70.8286 13.6026 69.9725 14.3059 69.2875 15.1607L68.033 16.6555V14.2365C68.0505 13.99 68.0176 13.7425 67.9362 13.5091C67.8548 13.2756 67.7267 13.0611 67.5596 12.8784C67.4063 12.7218 67.2218 12.599 67.0179 12.5178C66.8141 12.4365 66.5954 12.3988 66.376 12.4069C66.1602 12.3926 65.9439 12.4277 65.7437 12.5094C65.5435 12.5912 65.3647 12.7174 65.2209 12.8784C64.8711 13.3478 64.703 13.9271 64.7475 14.51V28.548C64.693 29.2035 64.8816 29.8561 65.2777 30.3823C65.4405 30.5655 65.6423 30.7101 65.8683 30.8055C66.0944 30.901 66.339 30.9449 66.5843 30.9341C66.8284 30.9477 67.0724 30.906 67.2979 30.8121C67.5234 30.7182 67.7246 30.5744 67.8862 30.3918C68.2733 29.8599 68.4564 29.2075 68.4022 28.5527V21.9133C68.4022 19.73 68.6768 18.0796 69.2354 16.8724C69.671 15.9293 70.6935 14.807 73.0653 14.807C73.4939 14.7763 73.9239 14.8417 74.3237 14.9984C74.7235 15.1551 75.0829 15.3991 75.3756 15.7124C75.855 16.2979 76.1499 17.0116 76.223 17.7637C76.3246 18.7474 76.3689 19.7362 76.3555 20.725V28.5433C76.2973 29.2006 76.4788 29.8569 76.8668 30.3918C77.0267 30.5713 77.2249 30.7128 77.447 30.8058C77.669 30.8989 77.9092 30.9411 78.1498 30.9293C78.3988 30.9436 78.6479 30.9023 78.8788 30.8085C79.1098 30.7147 79.3168 30.5707 79.4848 30.3871C79.8774 29.8558 80.0625 29.2005 80.0055 28.5433V22.0218C80.0055 19.8055 80.2044 18.2824 80.6068 17.3534C80.9714 16.6018 81.5323 15.9617 82.2306 15.5002C82.8912 15.0526 83.6708 14.8113 84.4698 14.807C84.8984 14.7793 85.328 14.8432 85.7297 14.9945C86.1314 15.1458 86.496 15.3809 86.799 15.6841C87.2993 16.2354 87.6167 16.9271 87.7079 17.6646C87.8141 18.5376 87.8616 19.4166 87.85 20.2959V28.548C87.7954 29.2035 87.9841 29.8561 88.3802 30.3823C88.5429 30.5655 88.7447 30.7101 88.9708 30.8055C89.1969 30.901 89.4415 30.9449 89.6868 30.9341C89.9358 30.9483 90.1849 30.907 90.4158 30.8132C90.6468 30.7194 90.8538 30.5754 91.0218 30.3918C91.4144 29.8606 91.5995 29.2052 91.5426 28.548V18.9661C91.5426 17.1742 91.3532 15.868 90.9792 15.0805C90.5789 14.2378 89.9143 13.5476 89.0856 13.1142ZM100.376 12.3974C100.145 12.3859 99.9148 12.4257 99.7012 12.5137C99.4875 12.6018 99.2961 12.736 99.1408 12.9067C98.7777 13.402 98.6093 14.0126 98.6674 14.6231V28.6753C98.62 29.298 98.798 29.9169 99.1692 30.4201C99.319 30.5964 99.5075 30.7362 99.72 30.8286C99.9326 30.921 100.164 30.9635 100.395 30.9529C100.632 30.9627 100.868 30.9204 101.086 30.8291C101.305 30.7378 101.5 30.5998 101.659 30.4248C102.044 29.9261 102.228 29.3022 102.175 28.6753V14.4722C102.219 13.9059 102.037 13.3453 101.669 12.9114C101.504 12.7367 101.303 12.6002 101.08 12.5114C100.857 12.4226 100.616 12.3837 100.376 12.3974ZM99.1408 8.24308C99.4982 8.55728 99.9614 8.72567 100.438 8.71463C100.898 8.7224 101.344 8.55357 101.683 8.24308C101.849 8.08369 101.977 7.88994 102.059 7.67559C102.14 7.46124 102.174 7.23156 102.156 7.0029C102.178 6.77462 102.146 6.54456 102.064 6.33038C101.982 6.11621 101.852 5.92363 101.683 5.76744C101.34 5.46631 100.9 5.29883 100.443 5.29589C99.9761 5.28519 99.5234 5.45408 99.1787 5.76744C99.0084 5.91503 98.8736 6.09889 98.7843 6.3054C98.6949 6.51191 98.6534 6.73579 98.6627 6.96046C98.6379 7.19648 98.6682 7.43502 98.7511 7.65748C98.834 7.87995 98.9674 8.08035 99.1408 8.24308ZM123.166 28.3028C123.764 27.3883 124.066 26.3139 124.033 25.2236C124.047 24.511 123.83 23.8129 123.413 23.2336C122.894 22.5548 122.225 22.0044 121.457 21.6257C120.321 21.0589 119.119 20.6329 117.878 20.3572C116.586 20.046 115.554 19.7772 114.815 19.5556C114.104 19.3624 113.434 19.0429 112.837 18.6125C112.543 18.4054 112.304 18.1311 112.139 17.8127C111.974 17.4943 111.889 17.1411 111.89 16.7828C111.896 16.372 112.012 15.9702 112.225 15.6183C112.438 15.2663 112.74 14.9767 113.102 14.7788C113.885 14.3062 114.79 14.0704 115.705 14.0997C116.541 14.0615 117.372 14.242 118.115 14.6231C118.706 14.9627 119.224 15.4145 119.64 15.9529C119.965 16.3826 120.335 16.7777 120.743 17.1318C120.982 17.3201 121.281 17.4171 121.585 17.4053C121.991 17.4385 122.394 17.3153 122.712 17.0611C122.829 16.9489 122.921 16.8129 122.98 16.6624C123.04 16.5118 123.066 16.3503 123.058 16.1887C123.038 15.7591 122.893 15.3445 122.641 14.9957C122.283 14.4857 121.824 14.0541 121.292 13.7272C120.571 13.2825 119.783 12.9561 118.958 12.7605C117.892 12.5002 116.798 12.3751 115.701 12.388C114.377 12.3511 113.06 12.5954 111.838 13.1048C110.91 13.4924 110.11 14.1311 109.527 14.9485C109.034 15.6489 108.767 16.4834 108.765 17.3393C108.734 18.1859 109.015 19.0146 109.556 19.6687C110.183 20.3817 110.967 20.9402 111.847 21.3003C113.153 21.835 114.501 22.264 115.876 22.5829C117.074 22.8196 118.232 23.2278 119.313 23.7948C119.74 24.0524 120.088 24.4204 120.322 24.8597C120.555 25.2989 120.664 25.793 120.638 26.2893C120.623 26.7128 120.5 27.1255 120.282 27.489C120.063 27.8526 119.756 28.1552 119.389 28.3688C118.546 28.9159 117.553 29.1894 116.548 29.1516C115.473 29.2391 114.396 29.0055 113.455 28.4805C112.514 27.9556 111.752 27.1631 111.265 26.2044C111.094 25.8745 110.872 25.5736 110.607 25.3132C110.401 25.1656 110.149 25.0969 109.897 25.1198C109.722 25.1128 109.548 25.1419 109.385 25.2052C109.222 25.2685 109.074 25.3647 108.95 25.4877C108.83 25.6008 108.735 25.7378 108.672 25.8896C108.608 26.0415 108.577 26.2049 108.581 26.3695C108.606 27.1057 108.874 27.8131 109.343 28.383C110.006 29.1882 110.869 29.8061 111.847 30.1749C113.203 30.7069 114.652 30.9619 116.108 30.9246C117.626 30.9638 119.139 30.7273 120.572 30.2267C121.614 29.8644 122.519 29.193 123.166 28.3028ZM144.12 28.3028C144.717 27.3883 145.019 26.3139 144.986 25.2236C145 24.511 144.783 23.8129 144.366 23.2336C143.851 22.5467 143.184 21.9882 142.415 21.6021C141.279 21.0353 140.077 20.6093 138.836 20.3336C137.544 20.0224 136.512 19.7536 135.773 19.532C135.062 19.3389 134.392 19.0194 133.795 18.5889C133.501 18.3818 133.262 18.1075 133.097 17.7891C132.932 17.4707 132.847 17.1175 132.848 16.7593C132.854 16.3484 132.97 15.9466 133.183 15.5947C133.396 15.2427 133.698 14.9531 134.06 14.7552C134.843 14.2827 135.748 14.0468 136.663 14.0761C137.499 14.038 138.33 14.2184 139.073 14.5996C139.672 14.9413 140.196 15.3981 140.616 15.9435C140.942 16.3732 141.312 16.7683 141.719 17.1224C141.959 17.3107 142.257 17.4077 142.562 17.3959C142.968 17.429 143.371 17.3058 143.689 17.0516C143.806 16.9395 143.897 16.8035 143.957 16.6529C144.017 16.5024 144.043 16.3409 144.034 16.1793C144.015 15.7497 143.87 15.3351 143.618 14.9862C143.259 14.4763 142.8 14.0446 142.269 13.7178C141.548 13.273 140.76 12.9466 139.935 12.7511C138.869 12.4908 137.775 12.3656 136.678 12.3786C135.353 12.3416 134.037 12.586 132.815 13.0953C131.887 13.483 131.086 14.1217 130.504 14.9391C130 15.6456 129.728 16.4911 129.728 17.3581C129.697 18.2048 129.978 19.0334 130.519 19.6876C131.145 20.4006 131.93 20.959 132.81 21.3192C134.113 21.8502 135.457 22.276 136.829 22.5923C138.027 22.8291 139.185 23.2372 140.266 23.8042C140.693 24.0618 141.041 24.4298 141.275 24.8691C141.508 25.3084 141.618 25.8024 141.592 26.2987C141.576 26.7222 141.453 27.1349 141.235 27.4985C141.016 27.862 140.709 28.1647 140.342 28.3783C139.499 28.9253 138.507 29.1988 137.501 29.161C136.421 29.2521 135.338 29.0187 134.392 28.4909C133.446 27.9631 132.681 27.165 132.194 26.1997C132.024 25.8697 131.802 25.5689 131.536 25.3085C131.331 25.1609 131.079 25.0922 130.826 25.1151C130.651 25.1081 130.477 25.1372 130.314 25.2005C130.151 25.2638 130.003 25.3599 129.879 25.4829C129.759 25.5961 129.665 25.733 129.601 25.8849C129.537 26.0368 129.507 26.2002 129.51 26.3647C129.536 27.101 129.804 27.8084 130.272 28.3783C130.935 29.1835 131.799 29.8014 132.777 30.1701C134.132 30.7022 135.581 30.9572 137.037 30.9199C138.556 30.9591 140.068 30.7226 141.502 30.222C142.551 29.8652 143.465 29.1951 144.12 28.3028Z" fill="black"/>
</svg>
